<svg xmlns="http://www.w3.org/2000/svg" width="1000" height="220" viewBox="0 0 1000 220" role="img" aria-labelledby="title desc">
<title id="title">LANE RESERVE — direction C</title><desc id="desc">Original geometric path wordmark with a lane symbol and the Japanese subtitle レーンリザーブ.</desc>
<rect width="1000" height="220" fill="#F8F7F3"/>
<g transform="translate(36 57) scale(1.05)"><path fill="#222222" d="M18 16h10v66h54v10H18zM40 16h10v44h32v10H40z"/><path fill="#A48D68" d="M62 16h20v10H62zM62 32h20v10H62z"/></g>
<g fill="#222222" fill-rule="nonzero" transform="translate(170 49) scale(1 1)"><path transform="translate(0 0)" d="M0 0h5v80h-5ZM0 75h54v5h-54Z"/><path transform="translate(66 0)" d="M0 80L24.5 0h5L54 80h-5L27.0 9.0L5 80ZM7.5 53h39v5H7.5Z"/><path transform="translate(132 0)" d="M0 0h5v80h-5ZM49 0h5v80h-5ZM5 0L49 71.5V80L5 8.5Z"/><path transform="translate(198 0)" d="M0 0h5v80h-5ZM0 0h54v5h-54ZM0 37.5h50v5h-50ZM0 75h54v5h-54Z"/><path transform="translate(293.7 0)" d="M0 80V0H30.240000000000002C46.98 0 54 9 54 23C54 36 47.52 43 36.18 46L54 80H47.5L31.86 47H5V80ZM5 5V42H29.700000000000003C42.660000000000004 42 49 33 49 23C49 13 42.660000000000004 5 29.700000000000003 5Z"/><path transform="translate(359.7 0)" d="M0 0h5v80h-5ZM0 0h54v5h-54ZM0 37.5h50v5h-50ZM0 75h54v5h-54Z"/><path transform="translate(425.7 0)" d="M54 6L51.5 11C37.8 3 5 3 5 22C5 31 17.82 33 29.160000000000004 37C45.9 43 54 48 54 60C54 86 14.580000000000002 85 0 74L2.5 69C16.74 79 49 79 49 61C49 52 38.339999999999996 49 25.919999999999998 45C8.1 39 0 34 0 22C0 -2 35.1 -5 54 6Z"/><path transform="translate(491.7 0)" d="M0 0h5v80h-5ZM0 0h54v5h-54ZM0 37.5h50v5h-50ZM0 75h54v5h-54Z"/><path transform="translate(557.7 0)" d="M0 80V0H30.240000000000002C46.98 0 54 9 54 23C54 36 47.52 43 36.18 46L54 80H47.5L31.86 47H5V80ZM5 5V42H29.700000000000003C42.660000000000004 42 49 33 49 23C49 13 42.660000000000004 5 29.700000000000003 5Z"/><path transform="translate(623.7 0)" d="M0 0h5L27.0 71.0L49 0h5L29.5 80h-5Z"/><path transform="translate(689.7 0)" d="M0 0h5v80h-5ZM0 0h54v5h-54ZM0 37.5h50v5h-50ZM0 75h54v5h-54Z"/></g>
<text x="171" y="177" fill="#222222" font-family="'Noto Sans CJK JP','Noto Sans JP','Hiragino Kaku Gothic ProN','Yu Gothic','IPAGothic',sans-serif" font-size="27" font-weight="400" letter-spacing="5">レーンリザーブ</text>
</svg>